<svg xmlns="http://www.w3.org/2000/svg" xmlns:xlink="http://www.w3.org/1999/xlink" width="496" zoomAndPan="magnify" viewBox="0 0 372 371.999986" height="496" preserveAspectRatio="xMidYMid meet" version="1.0"><defs><clipPath id="b69fda238d"><path d="M 22.5 0 L 349.5 0 C 361.925781 0 372 10.074219 372 22.5 L 372 349.5 C 372 361.925781 361.925781 372 349.5 372 L 22.5 372 C 10.074219 372 0 361.925781 0 349.5 L 0 22.5 C 0 10.074219 10.074219 0 22.5 0 Z M 22.5 0 " clip-rule="nonzero"/></clipPath></defs><g clip-path="url(#b69fda238d)"><rect x="-37.2" width="446.4" fill="#cc444b" y="-37.199999" height="446.399983" fill-opacity="1"/></g><path fill="#df7373" d="M 104.707031 289.808594 C 102.542969 276.40625 95.914062 266.964844 87.050781 258.964844 C 70.472656 248.371094 51.953125 245.707031 34.441406 249.886719 C 18.515625 273.8125 34.082031 297.738281 60.457031 302.207031 C 69.105469 328.367188 121.28125 353.804688 102.761719 328.511719 C 88.996094 309.699219 90.652344 301.269531 97.140625 297.882812 C 100.816406 295.9375 103.914062 291.25 104.707031 289.808594 Z M 104.707031 289.808594 " fill-opacity="1" fill-rule="evenodd"/><path fill="#e39695" d="M 166.324219 224.011719 C 179.007812 225.167969 192.265625 238.929688 192.265625 258.605469 C 192.265625 279.578125 166.828125 294.0625 144.558594 285.054688 C 138.21875 298.601562 117.820312 295.71875 104.707031 289.808594 C 92.453125 277.125 87.914062 267.324219 87.050781 258.964844 C 88.707031 253.992188 93.894531 253.128906 98.074219 252.769531 C 131.804688 249.742188 159.042969 240.734375 166.324219 224.011719 Z M 166.324219 224.011719 " fill-opacity="1" fill-rule="evenodd"/><path fill="#e39695" d="M 87.050781 258.964844 C 70.691406 258.964844 52.816406 256.226562 34.441406 249.886719 C 33.71875 248.589844 33.070312 247.21875 32.566406 245.921875 C 27.449219 231.507812 39.199219 217.886719 54.835938 213.5625 C 54.621094 198.285156 78.976562 190.429688 90.941406 202.25 C 110.328125 218.898438 99.804688 244.839844 87.050781 258.964844 Z M 87.050781 258.964844 " fill-opacity="1" fill-rule="evenodd"/><path fill="#df7373" d="M 90.871094 202.25 C 91.230469 201.890625 91.660156 201.527344 92.09375 201.167969 C 101.320312 193.601562 119.335938 187.621094 136.917969 204.339844 C 139.945312 202.464844 143.621094 201.527344 147.585938 201.816406 C 157.027344 202.464844 164.808594 209.960938 166.25 219.113281 C 166.394531 220.121094 166.46875 221.058594 166.46875 222.066406 C 166.46875 222.714844 166.394531 223.363281 166.394531 223.941406 C 159.117188 240.660156 133.75 255.289062 100.164062 258.316406 C 95.914062 258.675781 91.589844 258.894531 87.121094 258.894531 C 84.886719 238.355469 105.570312 226.535156 90.871094 202.25 Z M 90.871094 202.25 " fill-opacity="1" fill-rule="evenodd"/><path fill="#da5552" d="M 151.40625 233.957031 C 147.152344 233.957031 143.765625 237.417969 143.765625 241.597656 C 143.765625 245.777344 147.226562 249.238281 151.40625 249.238281 C 155.65625 249.238281 159.042969 245.777344 159.042969 241.597656 C 159.042969 237.417969 155.65625 233.957031 151.40625 233.957031 Z M 151.40625 233.957031 " fill-opacity="1" fill-rule="evenodd"/><path fill="#da5552" d="M 58.152344 248.589844 C 53.898438 248.589844 50.511719 252.046875 50.511719 256.226562 C 50.511719 260.40625 53.898438 263.867188 58.152344 263.867188 C 62.402344 263.867188 65.789062 260.40625 65.789062 256.226562 C 65.789062 252.046875 62.402344 248.589844 58.152344 248.589844 Z M 58.152344 248.589844 " fill-opacity="1" fill-rule="evenodd"/><path fill="#da5552" d="M 95.335938 221.273438 C 91.085938 221.273438 87.699219 224.664062 87.699219 228.914062 C 87.699219 233.167969 91.15625 236.554688 95.335938 236.554688 C 99.589844 236.554688 102.976562 233.09375 102.976562 228.914062 C 103.046875 224.664062 99.589844 221.273438 95.335938 221.273438 Z M 95.335938 221.273438 " fill-opacity="1" fill-rule="evenodd"/><path fill="#da5552" d="M 216.480469 208.808594 L 282.710938 208.808594 C 288.1875 208.808594 292.726562 213.277344 292.726562 218.824219 L 292.726562 223.222656 C 292.726562 228.769531 288.1875 233.238281 282.710938 233.238281 L 216.480469 233.238281 C 211.003906 233.238281 206.464844 228.769531 206.464844 223.222656 L 206.464844 218.824219 C 206.464844 213.277344 211.003906 208.808594 216.480469 208.808594 Z M 216.480469 208.808594 " fill-opacity="1" fill-rule="evenodd"/><path fill="#e39695" d="M 292.726562 221.347656 L 292.726562 223.148438 C 292.726562 228.699219 288.1875 233.167969 282.710938 233.167969 L 216.480469 233.167969 C 211.003906 233.167969 206.464844 228.699219 206.464844 223.148438 L 206.464844 221.347656 Z M 292.726562 221.347656 " fill-opacity="1" fill-rule="evenodd"/><path fill="#df7373" d="M 229.238281 253.417969 L 270.027344 253.417969 C 277.304688 253.417969 283.285156 246.929688 283.285156 239.074219 L 283.285156 233.167969 C 283.070312 233.167969 282.925781 233.167969 282.78125 233.167969 L 216.554688 233.167969 C 216.410156 233.167969 216.191406 233.167969 216.046875 233.167969 L 216.046875 239.074219 C 215.976562 246.929688 221.957031 253.417969 229.238281 253.417969 Z M 229.238281 253.417969 " fill-opacity="1" fill-rule="evenodd"/><path fill="#e39695" d="M 229.238281 253.417969 L 270.027344 253.417969 C 275.9375 253.417969 280.980469 249.164062 282.636719 243.398438 L 216.625 243.398438 C 218.28125 249.164062 223.328125 253.417969 229.238281 253.417969 Z M 229.238281 253.417969 " fill-opacity="1" fill-rule="evenodd"/><path fill="#e39695" d="M 270.316406 253.417969 L 267.070312 265.378906 C 263.828125 277.269531 235.652344 278.421875 232.121094 265.378906 L 228.875 253.417969 C 228.949219 253.417969 229.09375 253.417969 229.238281 253.417969 L 270.027344 253.417969 C 270.097656 253.417969 270.242188 253.417969 270.316406 253.417969 Z M 270.316406 253.417969 " fill-opacity="1" fill-rule="evenodd"/><path fill="#df7373" d="M 249.632812 55.160156 C 288.90625 55.160156 320.761719 87.015625 320.761719 126.292969 C 320.761719 152.8125 297.125 176.234375 284.800781 208.808594 L 214.535156 208.808594 C 202.210938 176.234375 178.574219 152.8125 178.574219 126.292969 C 178.503906 87.015625 210.355469 55.160156 249.632812 55.160156 Z M 249.632812 55.160156 " fill-opacity="1" fill-rule="evenodd"/><path fill="#da5552" d="M 249.632812 55.160156 C 288.90625 55.160156 320.761719 87.015625 320.761719 126.292969 C 320.761719 147.191406 306.058594 166.214844 293.808594 189.207031 C 240.765625 183.007812 199.113281 136.019531 197.167969 78.222656 C 210.140625 64.027344 228.875 55.160156 249.632812 55.160156 Z M 249.632812 55.160156 " fill-opacity="1" fill-rule="evenodd"/><path fill="#e39695" d="M 278.746094 112.382812 L 278.746094 170.683594 L 220.445312 170.683594 L 220.445312 156.488281 C 222.175781 157.28125 224.191406 157.785156 226.28125 157.785156 C 233.847656 157.785156 239.902344 151.730469 239.902344 144.164062 C 239.902344 136.667969 233.847656 130.542969 226.28125 130.542969 C 224.191406 130.542969 222.246094 131.046875 220.445312 131.839844 L 220.445312 112.382812 L 239.46875 112.382812 C 237.886719 110.148438 237.019531 107.480469 237.019531 104.527344 C 237.019531 97.03125 243.144531 90.90625 250.640625 90.90625 C 258.207031 90.90625 264.261719 97.03125 264.261719 104.527344 C 264.261719 107.480469 263.394531 110.148438 261.8125 112.382812 Z M 278.746094 112.382812 " fill-opacity="1" fill-rule="evenodd"/><path fill="#df7373" d="M 278.746094 112.382812 L 278.746094 163.261719 C 278.675781 163.261719 278.53125 163.261719 278.457031 163.261719 C 263.539062 163.261719 249.703125 143.949219 247.46875 120.164062 C 246.460938 108.921875 248.191406 98.691406 251.867188 90.980469 C 258.855469 91.628906 264.261719 97.464844 264.261719 104.527344 C 264.261719 107.480469 263.394531 110.148438 261.8125 112.382812 Z M 278.746094 112.382812 " fill-opacity="1" fill-rule="evenodd"/><path fill="#e4b1ab" d="M 281.628906 112.382812 L 281.628906 170.683594 C 281.628906 172.269531 280.332031 173.566406 278.746094 173.566406 L 220.445312 173.566406 C 218.859375 173.566406 217.5625 172.269531 217.5625 170.683594 L 217.5625 156.488281 C 217.5625 154.46875 219.652344 152.882812 221.8125 153.964844 C 227.796875 156.992188 236.949219 152.738281 236.949219 144.164062 C 236.949219 136.238281 228.660156 131.121094 221.597656 134.433594 C 219.652344 135.300781 217.488281 133.859375 217.488281 131.839844 L 217.488281 112.382812 C 217.488281 110.796875 218.789062 109.5 220.371094 109.5 L 234.859375 109.5 C 231.542969 98.90625 239.398438 88.023438 250.640625 88.023438 C 261.882812 88.023438 269.738281 98.90625 266.421875 109.5 L 278.746094 109.5 C 280.332031 109.570312 281.628906 110.796875 281.628906 112.382812 Z M 275.863281 167.875 L 275.863281 115.335938 L 261.8125 115.335938 C 259.503906 115.335938 258.0625 112.742188 259.433594 110.796875 C 264.332031 103.808594 259.433594 93.863281 250.640625 93.863281 C 243.363281 93.863281 238.246094 100.925781 240.40625 107.84375 C 241.273438 110.507812 242.351562 110.871094 242.351562 112.382812 C 242.351562 113.96875 241.054688 115.265625 239.46875 115.265625 L 223.253906 115.265625 L 223.253906 127.878906 C 233.34375 126.003906 242.714844 133.859375 242.714844 144.09375 C 242.714844 154.324219 233.417969 162.179688 223.253906 160.308594 L 223.253906 167.730469 L 275.863281 167.730469 Z M 210.789062 207.222656 C 206.105469 195.621094 200.050781 185.167969 194.285156 175.226562 C 184.484375 158.359375 175.621094 143.082031 175.621094 126.292969 C 175.621094 85.429688 208.769531 52.28125 249.632812 52.28125 C 290.492188 52.28125 323.644531 85.429688 323.644531 126.292969 C 323.644531 143.082031 314.78125 158.359375 304.980469 175.226562 C 299.214844 185.167969 293.160156 195.621094 288.476562 207.222656 C 292.800781 209.382812 295.609375 213.78125 295.609375 218.753906 C 295.609375 223.941406 296.042969 228.050781 291.863281 232.230469 C 290.277344 233.816406 288.332031 234.96875 286.167969 235.542969 L 286.167969 239.003906 C 286.167969 247.21875 280.546875 254.640625 272.621094 256.011719 L 269.882812 266.027344 C 265.917969 280.730469 233.703125 281.953125 229.382812 266.027344 L 226.640625 256.011719 C 218.714844 254.640625 213.09375 247.21875 213.09375 239.003906 L 213.09375 235.542969 C 207.617188 234.03125 203.582031 228.984375 203.582031 223.078125 C 203.582031 217.886719 203.148438 213.78125 207.328125 209.601562 C 208.410156 208.664062 209.492188 207.871094 210.789062 207.222656 Z M 282.78125 205.925781 C 287.683594 193.601562 294.023438 182.71875 300.007812 172.414062 C 309.375 156.269531 317.878906 141.640625 317.878906 126.363281 C 317.878906 88.671875 287.324219 58.117188 249.632812 58.117188 C 211.941406 58.117188 181.382812 88.671875 181.382812 126.363281 C 181.382812 141.640625 189.886719 156.269531 199.257812 172.414062 C 205.238281 182.71875 211.582031 193.671875 216.480469 205.925781 Z M 232.695312 256.300781 L 234.929688 264.585938 C 237.667969 274.75 261.8125 273.667969 264.332031 264.585938 L 266.566406 256.300781 Z M 218.859375 236.046875 C 218.859375 240.371094 218.714844 243.6875 221.957031 247.21875 C 223.832031 249.238281 226.425781 250.460938 229.164062 250.460938 L 269.953125 250.460938 C 275.863281 250.460938 280.332031 245.058594 280.332031 239.003906 L 280.332031 235.976562 L 218.859375 235.976562 Z M 282.710938 211.691406 L 216.480469 211.691406 C 212.589844 211.691406 209.347656 214.933594 209.347656 218.824219 C 209.347656 222.574219 208.84375 225.597656 211.4375 228.265625 C 212.734375 229.5625 214.535156 230.355469 216.480469 230.355469 L 282.710938 230.355469 C 286.601562 230.355469 289.84375 227.113281 289.84375 223.222656 C 289.84375 219.472656 290.347656 216.445312 287.753906 213.78125 C 286.457031 212.484375 284.726562 211.691406 282.710938 211.691406 Z M 337.121094 70.871094 C 340.363281 69 343.246094 73.972656 340.003906 75.84375 L 328.257812 82.621094 C 325.011719 84.492188 322.128906 79.519531 325.375 77.648438 Z M 195.796875 37.21875 C 193.925781 33.902344 198.898438 31.019531 200.769531 34.335938 L 207.542969 46.007812 C 209.417969 49.324219 204.445312 52.207031 202.570312 48.890625 Z M 146.9375 127.589844 C 143.191406 127.589844 143.191406 121.824219 146.9375 121.824219 L 160.484375 121.824219 C 164.304688 121.824219 164.304688 127.589844 160.484375 127.589844 Z M 159.261719 75.84375 C 156.015625 73.972656 158.828125 69 162.144531 70.871094 L 173.890625 77.648438 C 177.132812 79.519531 174.320312 84.492188 171.007812 82.621094 Z M 298.492188 34.335938 C 300.367188 31.019531 305.339844 33.902344 303.464844 37.21875 L 296.691406 48.890625 C 294.816406 52.207031 289.84375 49.324219 291.71875 46.007812 Z M 246.75 22.011719 C 246.75 18.191406 252.515625 18.191406 252.515625 22.011719 L 252.515625 35.558594 C 252.515625 39.378906 246.75 39.378906 246.75 35.558594 Z M 352.253906 121.824219 C 356.074219 121.824219 356.074219 127.589844 352.253906 127.589844 L 338.707031 127.589844 C 334.886719 127.589844 334.886719 121.824219 338.707031 121.824219 Z M 95.335938 224.085938 C 91.085938 224.085938 88.996094 229.203125 91.949219 232.230469 C 94.976562 235.183594 100.09375 233.09375 100.09375 228.84375 C 100.09375 226.246094 98.003906 224.085938 95.335938 224.085938 Z M 87.914062 221.417969 C 89.355469 219.976562 91.230469 218.96875 93.320312 218.535156 C 93.246094 216.808594 93.03125 215.003906 92.527344 213.058594 C 91.804688 210.320312 90.582031 207.292969 88.636719 204.050781 C 85.175781 200.734375 80.492188 199.367188 75.808594 199.367188 C 67.519531 199.4375 57.574219 204.699219 57.71875 213.347656 C 57.789062 216.160156 55.195312 216.300781 53.179688 217.023438 C 40.710938 221.492188 29.902344 233.382812 36.027344 246.640625 C 36.171875 246.929688 36.316406 247.21875 36.460938 247.507812 C 38.835938 248.300781 41.144531 249.019531 43.378906 249.667969 C 45.25 250.171875 47.054688 250.679688 49 251.183594 C 53.898438 242.175781 67.449219 244.839844 68.746094 254.859375 C 73.863281 255.507812 79.050781 255.867188 84.09375 256.011719 C 84.09375 248.875 86.328125 242.894531 88.78125 236.984375 C 83.878906 233.023438 83.519531 225.816406 87.914062 221.417969 Z M 99.085938 219.042969 C 106.21875 221.707031 108.308594 230.933594 102.832031 236.335938 C 100.527344 238.644531 97.285156 239.796875 93.894531 239.292969 C 91.804688 244.625 89.714844 250.03125 89.714844 256.011719 C 107.300781 255.652344 125.964844 252.046875 141.171875 244.046875 C 138.9375 234.894531 148.953125 227.6875 156.953125 232.589844 C 158.757812 230.714844 163.441406 224.949219 163.511719 222.859375 C 164.234375 209.601562 149.097656 200.160156 138.433594 206.789062 C 137.351562 207.4375 135.910156 207.367188 134.902344 206.429688 C 127.765625 199.582031 120.488281 196.84375 113.929688 196.554688 C 106.21875 196.195312 99.375 199.152344 94.542969 202.898438 C 97.355469 208.160156 99.011719 213.492188 99.085938 219.042969 Z M 58.152344 251.542969 C 53.898438 251.542969 51.808594 256.660156 54.765625 259.6875 C 57.789062 262.714844 62.90625 260.550781 62.90625 256.300781 C 62.980469 253.632812 60.816406 251.542969 58.152344 251.542969 Z M 67.734375 260.625 C 64.710938 267.253906 55.917969 268.910156 50.726562 263.722656 C 48.925781 261.921875 47.773438 259.542969 47.628906 256.875 L 35.59375 253.34375 C 22.621094 275.179688 37.683594 295.503906 60.890625 299.324219 C 61.972656 299.539062 62.835938 300.261719 63.125 301.269531 C 67.519531 314.671875 84.238281 327.933594 95.769531 333.484375 C 98.796875 334.925781 101.390625 335.859375 103.191406 336.003906 C 103.554688 336.078125 103.695312 337.015625 103.695312 336.652344 C 103.769531 335.644531 102.832031 333.625 100.308594 330.238281 C 93.535156 321.015625 83.085938 304.367188 93.96875 296.441406 C 95.914062 295 96.492188 295.359375 98.796875 292.835938 C 99.660156 291.972656 100.382812 290.964844 100.957031 290.171875 C 92.886719 281.523438 86.257812 272.011719 84.457031 261.847656 C 78.90625 261.703125 73.429688 261.34375 67.734375 260.625 Z M 151.40625 236.839844 C 147.152344 236.839844 145.0625 241.957031 148.019531 244.984375 C 151.042969 248.011719 156.160156 245.851562 156.160156 241.597656 C 156.234375 238.929688 154.070312 236.839844 151.40625 236.839844 Z M 160.847656 236.839844 C 164.304688 243.761719 159.261719 252.121094 151.40625 252.121094 C 148.523438 252.121094 145.929688 250.964844 143.980469 249.09375 C 128.054688 257.523438 108.8125 261.417969 90.363281 261.847656 C 91.011719 264.804688 92.167969 267.972656 94.113281 271.433594 C 96.707031 276.191406 100.671875 281.449219 106.363281 287.433594 C 113.28125 290.457031 122.144531 292.546875 129.640625 291.613281 C 135.046875 290.964844 139.585938 288.730469 141.890625 283.972656 C 142.539062 282.53125 144.125 281.738281 145.640625 282.386719 C 165.601562 290.457031 189.382812 277.917969 189.382812 258.675781 C 189.382812 250.03125 186.644531 242.605469 182.539062 237.128906 C 178.503906 231.796875 173.242188 228.265625 167.980469 227.183594 C 166.179688 230.644531 163.726562 233.957031 160.847656 236.839844 Z M 90.941406 198.503906 C 96.707031 193.960938 104.921875 190.359375 114.21875 190.792969 C 121.570312 191.152344 129.570312 193.960938 137.425781 200.878906 C 151.476562 194.25 168.988281 205.347656 169.351562 221.5625 C 175.90625 223.003906 182.394531 227.257812 187.222656 233.671875 C 193.851562 242.535156 197.960938 257.453125 193.132812 269.269531 C 186.070312 286.640625 164.160156 294.710938 145.929688 288.585938 C 137.710938 301.269531 117.964844 298.242188 105.859375 293.414062 C 103.984375 296.007812 101.464844 298.890625 98.507812 300.476562 C 89.714844 305.015625 100.527344 320.65625 105.136719 326.851562 C 108.597656 331.535156 109.894531 334.925781 109.605469 337.300781 C 108.8125 344.867188 98.652344 341.265625 93.464844 338.742188 C 81.355469 332.90625 64.0625 319.140625 58.367188 304.800781 C 31.628906 299.394531 15.921875 274.605469 31.125 249.8125 C 22.839844 232.878906 35.59375 216.878906 52.097656 211.402344 C 53.898438 195.621094 77.394531 188.050781 90.941406 198.503906 Z M 162.070312 103.808594 C 165.890625 103.808594 165.890625 109.570312 162.070312 109.570312 L 105.066406 109.570312 C 90.941406 109.570312 79.410156 121.101562 79.410156 135.226562 L 79.410156 173.710938 C 79.410156 177.53125 73.644531 177.53125 73.644531 173.710938 L 73.644531 135.226562 C 73.644531 117.933594 87.769531 103.808594 105.066406 103.808594 Z M 118.757812 324.257812 C 114.941406 324.257812 114.941406 318.492188 118.757812 318.492188 L 222.679688 318.492188 C 236.804688 318.492188 248.335938 306.960938 248.335938 292.835938 L 248.335938 283.902344 C 248.335938 280.082031 254.101562 280.082031 254.101562 283.902344 L 254.101562 292.835938 C 254.101562 310.132812 239.976562 324.257812 222.679688 324.257812 Z M 118.757812 324.257812 " fill-opacity="1" fill-rule="nonzero"/></svg>